HIERARCHY
ROOT Hips
{
	OFFSET 0.000000 0.000000 0.000000
	CHANNELS 6 Xposition Yposition Zposition Xrotation Yrotation Zrotation
	JOINT LeftUpLeg_virtual
	{
		OFFSET 0.000000 0.000000 0.000000
		CHANNELS 3 Xrotation Yrotation Zrotation
		JOINT LeftUpLeg
		{
			OFFSET 11.394100 -6.187798 -0.413800
			CHANNELS 3 Xrotation Yrotation Zrotation
			JOINT LeftLeg
			{
				OFFSET 0.430247 -32.302673 3.732800
				CHANNELS 3 Xrotation Yrotation Zrotation
				JOINT LeftFoot
				{
					OFFSET -0.430247 -48.264931 -6.423300
					CHANNELS 3 Xrotation Yrotation Zrotation
					JOINT LeftToeBase
					{
						OFFSET 4.230900 -16.068199 23.438400
						CHANNELS 3 Xrotation Yrotation Zrotation
						JOINT LeftToe_End
						{
							OFFSET 4.510700 0.695400 19.974600
							CHANNELS 3 Xrotation Yrotation Zrotation
							End Site
							{
								OFFSET 0 0 0
							}
						}
					}
				}
			}
		}
	}
	JOINT RightUpLeg_virtual
	{
		OFFSET 0.000000 0.000000 0.000000
		CHANNELS 3 Xrotation Yrotation Zrotation
		JOINT RightUpLeg
		{
			OFFSET -11.333700 -6.187798 -0.413800
			CHANNELS 3 Xrotation Yrotation Zrotation
			JOINT RightLeg
			{
				OFFSET -0.430392 -32.302628 3.733000
				CHANNELS 3 Xrotation Yrotation Zrotation
				JOINT RightFoot
				{
					OFFSET 0.430392 -48.264973 -6.423500
					CHANNELS 3 Xrotation Yrotation Zrotation
					JOINT RightToeBase
					{
						OFFSET -4.230900 -16.068199 23.438400
						CHANNELS 3 Xrotation Yrotation Zrotation
						JOINT RightToe_End
						{
							OFFSET -4.510700 0.695400 19.974600
							CHANNELS 3 Xrotation Yrotation Zrotation
							End Site
							{
								OFFSET 0 0 0
							}
						}
					}
				}
			}
		}
	}
	JOINT Spine_virtual
	{
		OFFSET 0.000000 0.000000 0.000000
		CHANNELS 3 Xrotation Yrotation Zrotation
		JOINT Spine
		{
			OFFSET -0.002400 12.777504 0.315300
			CHANNELS 3 Xrotation Yrotation Zrotation
			JOINT Spine1
			{
				OFFSET -0.002067 5.816869 0.032633
				CHANNELS 3 Xrotation Yrotation Zrotation
				JOINT Spine1_split
				{
					OFFSET -0.002067 5.816869 0.032633
					CHANNELS 3 Xrotation Yrotation Zrotation
					JOINT Spine2
					{
						OFFSET -0.002067 5.816869 0.032633
						CHANNELS 3 Xrotation Yrotation Zrotation
						JOINT Neck_virtual
						{
							OFFSET 0.000000 0.000000 0.000000
							CHANNELS 3 Xrotation Yrotation Zrotation
							JOINT Neck
							{
								OFFSET -0.003700 21.199493 -0.826900
								CHANNELS 3 Xrotation Yrotation Zrotation
								JOINT Head
								{
									OFFSET 0.000000 20.442200 4.834800
									CHANNELS 3 Xrotation Yrotation Zrotation
									JOINT HeadTop_End
									{
										OFFSET 0.000000 34.668396 4.968400
										CHANNELS 3 Xrotation Yrotation Zrotation
										End Site
										{
											OFFSET 0 0 0
										}
									}
								}
							}
						}
						JOINT LeftShoulder_virtual
						{
							OFFSET 0.000000 0.000000 0.000000
							CHANNELS 3 Xrotation Yrotation Zrotation
							JOINT LeftShoulder
							{
								OFFSET 3.288150 8.794197 -1.372250
								CHANNELS 3 Xrotation Yrotation Zrotation
								JOINT LeftShoulder_split
								{
									OFFSET 3.288150 8.794197 -1.372250
									CHANNELS 3 Xrotation Yrotation Zrotation
									JOINT LeftArm
									{
										OFFSET 11.953299 -2.279007 -0.146200
										CHANNELS 3 Xrotation Yrotation Zrotation
										JOINT LeftForeArm
										{
											OFFSET 18.448900 0.000000 0.000000
											CHANNELS 3 Xrotation Yrotation Zrotation
											JOINT LeftHand
											{
												OFFSET 29.527798 0.000000 0.000000
												CHANNELS 3 Xrotation Yrotation Zrotation
												End Site
												{
													OFFSET 0 0 0
												}
											}
										}
									}
								}
							}
						}
						JOINT RightShoulder_virtual
						{
							OFFSET 0.000000 0.000000 0.000000
							CHANNELS 3 Xrotation Yrotation Zrotation
							JOINT RightShoulder
							{
								OFFSET -3.249400 8.794197 -1.372250
								CHANNELS 3 Xrotation Yrotation Zrotation
								JOINT RightShoulder_split
								{
									OFFSET -3.249400 8.794197 -1.372250
									CHANNELS 3 Xrotation Yrotation Zrotation
									JOINT RightArm
									{
										OFFSET -11.953299 -2.279007 -0.146200
										CHANNELS 3 Xrotation Yrotation Zrotation
										JOINT RightForeArm
										{
											OFFSET -18.448900 0.000000 0.000000
											CHANNELS 3 Xrotation Yrotation Zrotation
											JOINT RightHand
											{
												OFFSET -29.527802 0.000000 0.000000
												CHANNELS 3 Xrotation Yrotation Zrotation
												End Site
												{
													OFFSET 0 0 0
												}
											}
										}
									}
								}
							}
						}
					}
				}
			}
		}
	}
}
MOTION
Frames: 8
Frame Time: 0.03333333
2.810329 103.090996 -13.789303 0.000000 0.000000 0.000000 0.148488 13.639655 7.315416 -12.067932 15.033578 3.789966 8.332869 0.098485 1.801495 3.547068 7.001315 -10.907936 4.482759 -3.130842 -1.849408 0.000000 0.000000 0.000000 0.570425 14.641754 7.212401 -10.885762 -7.520197 -6.347512 18.819111 1.717977 -3.876364 -13.153194 -14.335997 14.921996 6.846296 4.765522 -19.165514 0.000000 0.000000 0.000000 -1.465536 18.879758 7.086563 4.616149 -3.482013 3.977174 4.533387 -0.889414 2.577468 0.103657 -0.024875 -0.061748 0.000000 0.000000 0.000000 4.554161 1.221558 2.052105 -1.371498 7.319706 1.548271 -8.371397 -3.848716 -15.266648 0.000000 0.000000 0.000000 3.544485 -0.045770 1.127987 2.167676 -2.627658 -13.109416 1.721020 -3.482623 -0.880839 -2.223406 -3.509965 -35.360822 28.136467 -61.885325 20.045162 0.000000 0.000000 0.000000 5.877555 0.830562 1.769443 -2.965959 16.001269 15.398735 2.120730 1.761573 4.376544 -20.581918 17.905717 57.536557 -95.727717 81.583311 98.221433 0.000000 0.000000 0.000000 
2.777068 103.050392 -13.667446 0.000000 0.000000 0.000000 0.091630 13.337827 7.335507 -11.811443 15.343286 3.791879 8.271883 -0.009396 1.751164 3.248908 7.123721 -10.728659 4.804486 -3.204143 -1.832670 0.000000 0.000000 0.000000 0.528163 14.351484 7.233110 -10.720614 -7.102305 -6.346079 18.859566 1.515685 -3.799471 -13.335073 -14.380381 15.123569 6.766725 4.869011 -19.001171 0.000000 0.000000 0.000000 -1.518950 18.864880 7.061978 4.488553 -3.714334 3.853393 4.587167 -0.990219 2.656230 0.103172 -0.047066 -0.071074 0.000000 0.000000 0.000000 4.622740 1.099734 2.156772 -1.308189 7.178247 1.092300 -8.356496 -3.784576 -15.187487 0.000000 0.000000 0.000000 3.498050 -0.132352 1.223693 2.038090 -2.795905 -13.004214 1.810615 -3.108774 -1.007569 -1.871922 -3.584887 -35.291273 28.471787 -61.453432 20.161885 0.000000 0.000000 0.000000 5.895708 0.724095 1.882451 -3.021632 16.838344 15.724024 1.897120 1.957974 4.626450 -14.522517 20.360487 57.402385 -121.219807 80.823582 123.540432 0.000000 0.000000 0.000000 
2.772464 103.023567 -13.572071 0.000000 0.000000 0.000000 0.029629 13.095923 7.340695 -11.536577 15.615332 3.776959 8.192541 -0.062254 1.691254 2.898671 7.227739 -10.553646 5.107852 -3.279758 -1.821350 0.000000 0.000000 0.000000 0.486838 14.129956 7.234068 -10.526550 -6.637011 -6.341001 18.839588 1.308729 -3.725423 -13.457380 -14.422399 15.283814 6.713458 4.977242 -18.889305 0.000000 0.000000 0.000000 -1.585796 18.803825 7.020229 4.360463 -3.963442 3.695876 4.617894 -1.117494 2.690345 0.108699 -0.062437 -0.074868 0.000000 0.000000 0.000000 4.684011 0.954610 2.211372 -1.280725 7.016664 0.781641 -8.171336 -3.718139 -15.004151 0.000000 0.000000 0.000000 3.447824 -0.239669 1.278874 1.921306 -2.874209 -12.791078 1.865572 -2.716489 -1.088133 -1.364417 -4.006018 -35.306067 28.599143 -60.915295 20.159416 0.000000 0.000000 0.000000 5.902351 0.587866 1.948312 -3.020162 17.756364 15.849311 1.648945 2.031252 5.010502 -8.574437 23.914685 56.417363 -136.568813 79.339839 138.644043 0.000000 0.000000 0.000000 
2.802322 103.013512 -13.503429 0.000000 0.000000 0.000000 -0.042410 12.902597 7.327418 -11.250926 15.843764 3.756026 8.114079 -0.072620 1.624282 2.562029 7.298881 -10.392150 5.301641 -3.358834 -1.802792 0.000000 0.000000 0.000000 0.430739 13.930523 7.210915 -10.325760 -6.144280 -6.328169 18.782318 1.095913 -3.654916 -13.504634 -14.465497 15.391295 6.720279 5.083265 -18.833446 0.000000 0.000000 0.000000 -1.683531 18.657198 6.966089 4.240814 -4.215183 3.496542 4.627538 -1.263861 2.664593 0.112013 -0.069467 -0.066820 0.000000 0.000000 0.000000 4.730989 0.794483 2.192710 -1.303950 6.844956 0.631871 -7.805254 -3.648271 -14.674894 0.000000 0.000000 0.000000 3.400693 -0.366095 1.279085 1.820708 -2.830364 -12.451268 1.885546 -2.280696 -1.119260 -0.761604 -4.732765 -35.409200 28.581915 -60.352235 20.105878 0.000000 0.000000 0.000000 5.882427 0.419972 1.948633 -2.964771 18.776115 15.816015 1.436538 2.007973 5.325188 -2.668461 28.456989 54.209862 -144.929675 78.081008 146.745535 0.000000 0.000000 0.000000 
2.861079 103.012962 -13.461010 0.000000 0.000000 0.000000 -0.133784 12.734041 7.295638 -10.935784 16.056170 3.735897 8.049808 -0.035600 1.555067 2.255979 7.346323 -10.210049 5.382052 -3.443070 -1.784058 0.000000 0.000000 0.000000 0.346867 13.722933 7.166603 -10.135255 -5.644980 -6.304682 18.701492 0.887464 -3.589103 -13.464481 -14.503714 15.451819 6.783184 5.181118 -18.842373 0.000000 0.000000 0.000000 -1.826294 18.414164 6.903893 4.143338 -4.447605 3.242911 4.626835 -1.418781 2.574874 0.103769 -0.070433 -0.051649 0.000000 0.000000 0.000000 4.746041 0.641273 2.096227 -1.377510 6.676774 0.649806 -7.293818 -3.623423 -14.156378 0.000000 0.000000 0.000000 3.360345 -0.506216 1.221827 1.729362 -2.693740 -11.989507 1.834704 -1.875818 -1.130127 -0.164455 -5.664004 -35.581843 28.443594 -59.791476 20.027851 0.000000 0.000000 0.000000 5.804725 0.232051 1.882352 -2.862351 19.895265 15.666191 1.378644 1.913230 5.422860 3.262256 33.703077 50.532629 -149.151100 77.414607 150.716621 0.000000 0.000000 0.000000 
2.939308 103.019119 -13.440022 0.000000 0.000000 0.000000 -0.247426 12.525172 7.244852 -10.565093 16.288999 3.716134 8.003264 0.052467 1.492212 1.958687 7.382988 -9.987453 5.415038 -3.530435 -1.788022 0.000000 0.000000 0.000000 0.229440 13.476749 7.109097 -9.958942 -5.148658 -6.266115 18.594090 0.699473 -3.534568 -13.340362 -14.530608 15.484599 6.869551 5.269574 -18.925353 0.000000 0.000000 0.000000 -1.989316 18.099472 6.826805 4.081327 -4.636677 2.932522 4.616926 -1.562924 2.424394 0.094200 -0.091056 -0.032507 0.000000 0.000000 0.000000 4.716537 0.514329 1.932992 -1.494778 6.512960 0.823432 -6.698755 -3.678294 -13.450042 0.000000 0.000000 0.000000 3.307067 -0.638945 1.114926 1.638262 -2.510985 -11.446588 1.752626 -1.506123 -1.122255 0.354962 -6.734752 -35.809517 28.205229 -59.242575 19.939685 0.000000 0.000000 0.000000 5.651241 0.039031 1.761010 -2.715239 21.083266 15.442388 1.358605 1.746500 5.463137 9.322625 39.197390 45.281026 -150.546822 77.525543 151.887985 0.000000 0.000000 0.000000 
3.030866 103.034851 -13.444088 0.000000 0.000000 0.000000 -0.381430 12.232240 7.173028 -10.113797 16.554374 3.689784 7.954817 0.180665 1.440357 1.632441 7.417244 -9.731637 5.450012 -3.623090 -1.821515 0.000000 0.000000 0.000000 0.101744 13.171078 7.034175 -9.808672 -4.656425 -6.206958 18.428129 0.549368 -3.495796 -13.138752 -14.537564 15.502571 6.968679 5.342266 -19.086296 0.000000 0.000000 0.000000 -2.136552 17.712062 6.718560 4.062649 -4.762525 2.566848 4.594787 -1.686122 2.227836 0.086025 -0.128290 -0.017386 0.000000 0.000000 0.000000 4.641110 0.424877 1.726589 -1.661312 6.359483 1.122552 -6.124938 -3.832146 -12.583995 0.000000 0.000000 0.000000 3.223102 -0.752913 0.974360 1.535609 -2.344151 -10.875213 1.662146 -1.229528 -1.113656 0.740580 -7.890161 -36.073863 27.860721 -58.686406 19.825203 0.000000 0.000000 0.000000 5.420569 -0.140333 1.605890 -2.537268 22.312857 15.222292 1.348586 1.479775 5.442862 15.646847 44.518866 38.617357 -149.592372 78.442783 150.745335 0.000000 0.000000 0.000000 
3.135818 103.061745 -13.474674 0.000000 0.000000 0.000000 -0.521416 11.837274 7.072715 -9.596467 16.823640 3.659867 7.909440 0.316912 1.398406 1.266852 7.443533 -9.503510 5.488669 -3.717398 -1.874521 0.000000 0.000000 0.000000 -0.027029 12.779801 6.937425 -9.686563 -4.171262 -6.124720 18.178566 0.454803 -3.474951 -12.862137 -14.510498 15.514413 7.080407 5.393285 -19.321205 0.000000 0.000000 0.000000 -2.249685 17.279306 6.575678 4.088625 -4.806887 2.158221 4.557213 -1.779976 2.007698 0.091064 -0.160763 -0.009624 0.000000 0.000000 0.000000 4.519146 0.372530 1.509640 -1.849214 6.215737 1.493579 -5.699330 -4.099680 -11.641370 0.000000 0.000000 0.000000 3.103398 -0.837468 0.822794 1.420202 -2.245928 -10.318391 1.533973 -1.056527 -1.157990 0.979679 -9.103385 -36.351923 27.402371 -58.106885 19.665347 0.000000 0.000000 0.000000 5.131177 -0.291614 1.445072 -2.338848 23.560010 15.046864 1.355113 1.256428 5.387516 22.337488 49.279702 30.780790 -145.641968 80.113283 146.654680 0.000000 0.000000 0.000000 
